<svg width="749" height="690" viewBox="0 0 749 690" fill="none" xmlns="http://www.w3.org/2000/svg">
<g filter="url(#filter0_d_3_6)">
<path fill-rule="evenodd" clip-rule="evenodd" d="M253.551 243H341.858L385 318.854L300.449 467H212.127L168 390.194L253.551 243ZM257.163 262.147L182.72 390.231L215.803 447.814L289.409 318.843L257.163 262.147ZM300.449 325.211L226.789 454.275H293.037L366.698 325.211H300.449ZM366.716 312.486H300.456L268.173 255.725H334.433L366.716 312.486Z" fill="#9AEE86"/>
<path fill-rule="evenodd" clip-rule="evenodd" d="M587.562 391.199L543.446 467.679L456.121 467.035L369.904 319.578L414.028 243.085L502.67 243.353L587.562 391.199ZM569.155 384.734L495.285 256.082L428.828 255.882L503.885 384.253L569.155 384.734ZM492.848 390.624L417.736 262.159L384.641 319.535L459.753 447.999L492.848 390.624ZM470.777 454.391L503.879 397.005L569.224 397.487L536.122 454.873L470.777 454.391Z" fill="#9AEE86"/>
<path d="M594.926 280.289L594.544 281.71L595.433 282.881C599.214 287.864 601.043 293.118 600.999 298.31L600.999 298.322V298.335C600.999 313.408 586.395 326.679 566.617 327.907V268.781C573.435 269.217 579.712 271.121 584.988 274.052L588.728 276.13L589.407 271.905C592.201 254.499 594.224 217.524 570.078 184.654L569.027 183.223L567.266 183.456C566.98 183.494 566.832 183.518 566.708 183.537C566.581 183.557 566.48 183.573 566.282 183.596C561.548 184.127 556.703 183.515 552.856 181.974C548.931 180.402 546.845 178.211 546.234 176.337L546.214 176.277L546.192 176.217C544.902 172.765 525.356 128.46 385.375 128.46C242.618 128.46 210.067 178.769 208.117 182.02C207.21 183.532 205.385 185.104 202.58 186.335C199.802 187.555 196.381 188.293 192.757 188.397L191.311 188.439L190.443 189.596C167.121 220.706 165.398 254.358 166.357 271.172L166.622 275.83L170.75 273.655C175.878 270.954 181.892 269.202 188.392 268.787V327.907C168.611 326.679 154.001 313.407 154.001 298.361V298.346L154.001 298.331C153.95 293.153 155.762 287.911 159.518 282.939L160.302 281.901L160.08 280.619C158.619 272.181 153.342 229.988 182.353 190.859L184.588 187.845L181.155 186.328C178.222 185.032 176.402 183.369 175.578 181.814C174.824 180.392 174.838 178.971 175.651 177.53C176.673 175.738 214.503 111 385.393 111C472.077 111 520.539 126.497 547.327 142.027C573.845 157.4 579.267 172.885 579.568 173.78C579.858 174.693 579.832 175.609 579.47 176.542C579.093 177.514 578.316 178.585 577.01 179.625L574.711 181.458L576.497 183.793C607.467 224.301 597.517 270.651 594.926 280.289Z" fill="#D5D5D5" stroke="#E1E1E1" stroke-width="6"/>
<path d="M527.582 237.767L527.583 237.766C530.051 236.339 532.808 235.454 535.702 235.166C538.598 234.878 541.582 235.193 544.486 236.109C547.39 237.026 550.154 238.526 552.613 240.534C555.072 242.542 557.171 245.014 558.783 247.809L606.532 330.562C609.794 336.215 610.841 342.785 609.51 348.799C608.181 354.801 604.603 359.744 599.628 362.618C594.654 365.491 588.587 366.121 582.728 364.271C576.857 362.417 571.695 358.225 568.433 352.572L520.684 269.819L520.684 269.818C519.071 267.024 517.98 263.971 517.471 260.837C516.962 257.703 517.045 254.559 517.703 251.584C518.361 248.611 519.579 245.867 521.275 243.502C522.97 241.138 525.114 239.192 527.582 237.767Z" fill="#EAEAEA" stroke="#EAEAEA" stroke-width="6"/>
<path d="M228.182 238.101L228.183 238.101C230.652 239.527 232.797 241.473 234.493 243.837C236.19 246.202 237.41 248.946 238.068 251.92C238.727 254.895 238.811 258.04 238.303 261.175C237.794 264.31 236.704 267.364 235.091 270.159L187.342 352.913C184.081 358.566 178.918 362.758 173.048 364.611C167.189 366.461 161.121 365.832 156.147 362.958C151.172 360.084 147.594 355.141 146.265 349.139C144.934 343.125 145.981 336.556 149.243 330.903L196.992 248.149L196.992 248.149C198.604 245.354 200.701 242.883 203.159 240.874C205.617 238.866 208.38 237.366 211.283 236.449C214.186 235.532 217.17 235.216 220.064 235.504C222.958 235.791 225.714 236.675 228.182 238.101Z" fill="#EAEAEA" stroke="#EAEAEA" stroke-width="6"/>
</g>
<defs>
<filter id="filter0_d_3_6" x="0" y="0" width="749" height="690" filterUnits="userSpaceOnUse" color-interpolation-filters="sRGB">
<feFlood flood-opacity="0" result="BackgroundImageFix"/>
<feColorMatrix in="SourceAlpha" type="matrix" values="0 0 0 0 0 0 0 0 0 0 0 0 0 0 0 0 0 0 127 0" result="hardAlpha"/>
<feOffset dy="4"/>
<feGaussianBlur stdDeviation="2"/>
<feComposite in2="hardAlpha" operator="out"/>
<feColorMatrix type="matrix" values="0 0 0 0 0 0 0 0 0 0 0 0 0 0 0 0 0 0 0.25 0"/>
<feBlend mode="normal" in2="BackgroundImageFix" result="effect1_dropShadow_3_6"/>
<feBlend mode="normal" in="SourceGraphic" in2="effect1_dropShadow_3_6" result="shape"/>
</filter>
</defs>
</svg>
